<?xml version="1.0" encoding="UTF-8"?>
<svg version="1.1" xmlns="http://www.w3.org/2000/svg" width="2500" height="2500">
<path d="M0 0 C1.35287739 0.00040031 1.35287739 0.00040031 2.73308563 0.00080872 C28.58922714 0.01041584 54.40303399 0.0391723 80.19903564 2.00390625 C82.81567034 2.20192968 85.4329048 2.39033446 88.05029297 2.578125 C189.09997272 9.91892949 288.86723732 29.27533299 553.84179688 130.31054688 C555.50952926 131.13071318 557.17854586 131.9482667 558.84765625 132.765625 C571.63853097 139.03467032 584.20605857 145.64602261 596.66455078 152.55126953 C599.77960765 154.27295114 602.90299001 155.97884747 606.02734375 157.68359375 C622.52579051 166.72130585 638.6298068 176.29277531 654.625 186.1875 C655.44742187 186.69249023 656.26984375 187.19748047 657.1171875 187.71777344 C668.84519584 194.92432593 680.2905342 202.56449078 691.75 210.1875 C692.88598633 210.94210007 692.88598633 210.94210007 694.04492188 211.71194458 C705.03772149 219.02086326 715.87933087 226.52018045 726.625 234.1875 C728.0164624 235.1779834 728.0164624 235.1779834 729.43603516 236.18847656 C738.98201817 243.00332002 748.36839351 249.98529342 757.625 257.1875 C759.19553498 258.38503292 760.76607826 259.58255542 762.33740234 260.77905273 C769.30862626 266.09841356 776.11612565 271.60838177 782.90625 277.15625 C785.85611391 279.56599799 788.82680078 281.94720581 791.8125 284.3125 C797.26873289 288.66655563 802.58587513 293.18198341 807.89550781 297.71240234 C809.65488878 299.21299238 811.41723299 300.71005308 813.1796875 302.20703125 C819.6178085 307.68761144 825.95596405 313.24958331 832.1875 318.96484375 C834.26772725 320.86171764 836.37056898 322.72142943 838.5 324.5625 C843.68045477 329.07180274 848.70058942 333.75453134 853.73120117 338.42913818 C854.94744143 339.55839774 856.16464507 340.68662111 857.38305664 341.8135376 C867.90220493 351.54667582 878.13554304 361.54105903 888.25561523 371.68774414 C890.71287782 374.15043387 893.17553317 376.60764202 895.63867188 379.06445312 C897.22948787 380.655929 898.81999413 382.24771454 900.41015625 383.83984375 C901.13316422 384.56082748 901.85617218 385.28181122 902.60108948 386.02464294 C906.57694959 390.0187032 910.38106498 394.10274236 914.04075623 398.38917542 C915.66684347 400.23499782 917.36884929 401.96566809 919.125 403.6875 C922.11734375 406.63350215 924.87824172 409.71733007 927.6171875 412.8984375 C929.56855185 415.12314472 931.56668456 417.29903265 933.5793457 419.46826172 C938.39058918 424.65570657 942.950289 429.96838774 947.38671875 435.484375 C949.67315705 438.24565825 952.06108218 440.87288222 954.5 443.5 C958.74120981 448.10830061 962.61978028 452.90320895 966.4465332 457.85253906 C969.59290157 461.91058578 972.84364945 465.853554 976.1875 469.75 C981.03285577 475.41876066 985.62068518 481.25907269 990.12011719 487.20556641 C991.85557784 489.49117147 993.60325436 491.7671766 995.3515625 494.04296875 C1003.45129256 504.60194832 1011.40675913 515.24580969 1019.12646484 526.0859375 C1020.54286712 528.07231594 1021.96781519 530.05227317 1023.39453125 532.03125 C1037.87068116 552.21522646 1051.61098073 573.0337744 1064.625 594.1875 C1065.26501953 595.22551758 1065.90503906 596.26353516 1066.56445312 597.33300781 C1076.26808853 613.0904782 1085.67104202 628.98923945 1094.625 645.1875 C1095.11774414 646.0753418 1095.61048828 646.96318359 1096.11816406 647.87792969 C1139.37388224 725.93186222 1174.05926729 808.46297685 1245.8125 1136.9375 C1245.93085709 1138.22102859 1245.93085709 1138.22102859 1246.05160522 1139.53048706 C1246.6483064 1146.07791693 1247.14459015 1152.63063005 1247.625 1159.1875 C1247.70919579 1160.30115511 1247.79339158 1161.41481023 1247.88013875 1162.56221247 C1249.97680452 1191.25551064 1249.92130926 1219.94907638 1249.90239321 1248.70379329 C1249.89794585 1256.09435563 1249.9053685 1263.48489631 1249.91286864 1270.87545451 C1249.92797955 1286.18180848 1249.92982757 1301.4881457 1249.92734561 1316.79450557 C1249.92550297 1328.61504787 1249.92729274 1340.43558477 1249.93157005 1352.2561264 C1249.93217248 1353.96268141 1249.93277368 1355.66923641 1249.93337366 1357.37579142 C1249.93428103 1359.94819491 1249.9351897 1362.5205984 1249.93610601 1365.09300189 C1249.94451453 1388.95418926 1249.94888535 1412.81537462 1249.94469929 1436.67656326 C1249.94454291 1437.57297479 1249.94438654 1438.46938631 1249.94422542 1439.39296182 C1249.9434198 1443.93498567 1249.94257402 1448.47700951 1249.94171212 1453.01903334 C1249.94154103 1453.92089239 1249.94136994 1454.82275143 1249.94119367 1455.75193954 C1249.94084701 1457.57570299 1249.94049848 1459.39946643 1249.94014808 1461.22322988 C1249.93478491 1489.63304442 1249.94274687 1518.04282796 1249.96118164 1546.45263672 C1249.98192747 1578.46053074 1249.99262026 1610.46840556 1249.98860615 1642.47630668 C1249.98821087 1645.89242538 1249.98784931 1649.30854408 1249.98750877 1652.72466278 C1249.98737268 1653.9861314 1249.98737268 1653.9861314 1249.98723383 1655.27308423 C1249.98607177 1667.92380674 1249.99268554 1680.57450972 1250.00332069 1693.22522736 C1250.01540456 1707.6128403 1250.01689425 1722.00041044 1250.00453053 1736.38802406 C1249.99793457 1744.42161694 1249.99945726 1752.45510721 1250.01311904 1760.48869174 C1250.02241385 1766.51007155 1250.01576897 1772.53132881 1250.00327124 1778.55270717 C1250.00063856 1780.9706154 1250.00294529 1783.38853581 1250.01100711 1785.80643204 C1250.17439072 1838.51166904 1233.53885065 1881.63200009 1197.625 1920.1875 C1196.94050781 1920.92613281 1196.25601563 1921.66476562 1195.55078125 1922.42578125 C1173.74685829 1945.11637021 1144.29207033 1960.58693013 1113.9375 1968 C1113.14375977 1968.1949707 1112.35001953 1968.38994141 1111.53222656 1968.59082031 C1098.31937732 1971.61531992 1085.08490536 1972.57465759 1071.5625 1972.5 C1070.85088715 1972.49784485 1070.13927429 1972.4956897 1069.40609741 1972.49346924 C1041.93757547 1972.36106131 1016.31879365 1967.44956859 991.625 1955.1875 C990.96419434 1954.86523438 990.30338867 1954.54296875 989.62255859 1954.2109375 C979.92891385 1949.44523856 971.2049843 1943.73196065 962.625 1937.1875 C961.27728516 1936.17816406 961.27728516 1936.17816406 959.90234375 1935.1484375 C941.27826106 1920.59749506 926.35771677 1902.61477741 914.625 1882.1875 C913.98175781 1881.11113281 913.33851563 1880.03476563 912.67578125 1878.92578125 C895.30517732 1848.97720125 891.44297156 1815.81617732 891.52493286 1781.91902161 C891.52664685 1779.65769199 891.52790813 1777.39636199 891.52875793 1775.13503188 C891.53233273 1768.94372314 891.54212552 1762.75243759 891.55291152 1756.5611378 C891.56234256 1750.56191917 891.56697721 1744.56269819 891.57162625 1738.56347444 C891.58065122 1727.04371651 891.59313899 1715.52396563 891.60805158 1704.00421392 C891.6317112 1685.70209842 891.64596695 1667.39998473 891.65721822 1649.09785782 C891.66158701 1642.04459425 891.66622393 1634.99133086 891.67082024 1627.93806744 C891.67132876 1627.15449441 891.67183729 1626.37092138 891.67236123 1625.56360371 C891.68448612 1606.92562037 891.69885167 1588.28763903 891.71435547 1569.6496582 C891.71503063 1568.83457198 891.7157058 1568.01948576 891.71640142 1567.17969995 C891.73218083 1548.17784078 891.75009569 1529.17598566 891.77270508 1510.1741333 C891.77367635 1509.35768028 891.77464762 1508.54122726 891.77564832 1507.70003324 C891.78349483 1501.11920746 891.79141687 1494.53838178 891.79935859 1487.95755612 C891.83211047 1460.76845373 891.85467507 1433.57935862 891.86565296 1406.39023841 C891.86721743 1402.54289598 891.86891183 1398.69555362 891.87069321 1394.84821129 C891.87121636 1393.7125984 891.87121636 1393.7125984 891.87175008 1392.55404383 C891.87766517 1380.41904314 891.89442635 1368.28408097 891.9155349 1356.14909818 C891.93659807 1343.92988815 891.94674344 1331.71070757 891.94599093 1319.49147908 C891.94589396 1312.88374113 891.95090647 1306.2760821 891.96915817 1299.66836166 C891.98581744 1293.60116958 891.98818597 1287.53413442 891.97990941 1281.46692666 C891.9793425 1279.2898769 891.98371625 1277.11281798 891.99397077 1274.9357923 C892.22766913 1222.43808238 877.71923617 1173.50043797 840.625 1135.1875 C838.06291244 1132.71712027 835.37373916 1130.44728075 832.625 1128.1875 C831.84576172 1127.53177002 831.84576172 1127.53177002 831.05078125 1126.86279297 C795.24556016 1096.78037267 747.12040581 1079.7453599 700.1953125 1083.6940918 C669.47025229 1086.60375033 637.461189 1096.33169645 612.625 1115.1875 C611.78533691 1115.82171875 611.78533691 1115.82171875 610.92871094 1116.46875 C600.65806486 1124.26447489 590.91055542 1132.25523378 582.625 1142.1875 C581.86445312 1143.06019531 581.10390625 1143.93289063 580.3203125 1144.83203125 C560.91912542 1167.40630967 547.83807431 1194.13337536 540.75 1223 C540.55873535 1223.77408203 540.3674707 1224.54816406 540.17041016 1225.34570312 C536.56796562 1241.16897449 536.33477818 1257.01809961 536.36671448 1273.1537323 C536.36385481 1275.44199043 536.36011409 1277.73024759 536.35557598 1280.01850301 C536.34565348 1286.26551142 536.34795281 1292.51246329 536.35230291 1298.75947583 C536.35453398 1304.81796087 536.34733968 1310.87643003 536.34029961 1316.93490958 C536.3261679 1329.32201186 536.32078711 1341.70910274 536.32003975 1354.09621239 C536.31885755 1371.02487391 536.30362061 1387.95350318 536.28454458 1404.88215295 C536.275648 1412.78356562 536.26737744 1420.68497894 536.25922298 1428.5863924 C536.25840523 1429.37723912 536.25758748 1430.16808584 536.25674495 1430.98289761 C536.23743007 1449.7829476 536.22387574 1468.58300085 536.21166992 1487.38305664 C536.21086473 1488.61598453 536.21086473 1488.61598453 536.21004328 1489.87382006 C536.19755114 1509.04616894 536.18676908 1528.21851821 536.17797852 1547.39086914 C536.17490837 1554.04060873 536.17181607 1560.69034832 536.16870117 1567.34008789 C536.16831936 1568.16082558 536.16793754 1568.98156328 536.16754416 1569.82717181 C536.15877173 1588.58633357 536.14759279 1607.34548842 536.12757015 1626.10464191 C536.12672749 1626.894353 536.12588482 1627.68406409 536.12501662 1628.49770582 C536.11653082 1636.38462795 536.10753502 1644.27154936 536.09782485 1652.15847009 C536.09306407 1656.03936049 536.08844848 1659.92025104 536.08393669 1663.80114174 C536.08260487 1664.9466538 536.08260487 1664.9466538 536.08124614 1666.11530751 C536.06735891 1678.366164 536.06466975 1690.61699831 536.06661635 1702.86786149 C536.06841766 1715.19407008 536.05969353 1727.52023436 536.04030795 1739.84642818 C536.03013716 1746.51445394 536.02509537 1753.1823796 536.03307533 1759.85041618 C536.04030898 1765.96783537 536.03354954 1772.08508169 536.01618993 1778.20247904 C536.01234105 1780.40221022 536.01342075 1782.60195747 536.02024681 1784.80168142 C536.0712536 1802.67189769 535.22519094 1820.89177326 529.8125 1838.0625 C529.55388184 1838.91996826 529.29526367 1839.77743652 529.02880859 1840.66088867 C521.54266804 1865.03052065 510.5780219 1887.92814826 493.625 1907.1875 C492.89539062 1908.02667969 492.16578125 1908.86585937 491.4140625 1909.73046875 C489.18639444 1912.25125103 486.91793845 1914.72602077 484.625 1917.1875 C483.90183594 1917.97640625 483.17867187 1918.7653125 482.43359375 1919.578125 C471.50691495 1931.04096909 458.3580468 1940.3853919 444.625 1948.1875 C443.50351563 1948.84105469 442.38203125 1949.49460937 441.2265625 1950.16796875 C400.62721446 1973.25113541 351.09725275 1976.8838931 306.46875 1964.62890625 C292.53183855 1960.58551601 279.35004813 1955.14712248 266.625 1948.1875 C266.00173828 1947.85024902 265.37847656 1947.51299805 264.73632812 1947.16552734 C225.52661681 1925.67362783 196.7299257 1887.08477144 183.875 1844.625 C177.38424756 1821.92288222 176.31547471 1798.89428407 176.40467834 1775.42308044 C176.40595759 1773.09694785 176.40634009 1770.77081461 176.40591425 1768.4446817 C176.40725245 1762.11162021 176.42098343 1755.77863915 176.4368459 1749.44559968 C176.45122249 1743.29848083 176.45395737 1737.15135063 176.45787878 1731.00421801 C176.46616014 1718.44052024 176.48332692 1705.87685018 176.50523567 1693.31316948 C176.53500703 1676.14706157 176.55046938 1658.98096073 176.56204777 1641.81483198 C176.56746134 1633.79958167 176.57351149 1625.78433183 176.57968044 1617.76908207 C176.58029623 1616.96692857 176.58091201 1616.16477507 176.58154645 1615.33831389 C176.59630422 1596.27965563 176.61692441 1577.22100464 176.63891602 1558.16235352 C176.63987407 1557.32931287 176.64083212 1556.49627223 176.6418192 1555.63798793 C176.66420387 1536.19937069 176.688318 1516.76075616 176.7144165 1497.32214355 C176.72345288 1490.57552086 176.73246563 1483.82889814 176.74145508 1477.08227539 C176.74256732 1476.24954523 176.74367956 1475.41681507 176.74482551 1474.55885066 C176.77019681 1455.52894522 176.79313237 1436.49904237 176.80711269 1417.46912479 C176.80770127 1416.66828816 176.80828985 1415.86745153 176.80889627 1415.04234712 C176.81470309 1407.04504611 176.81999381 1399.04774491 176.82456095 1391.05044309 C176.82682564 1387.11556389 176.82923753 1383.18068479 176.83175468 1379.24580574 C176.83224995 1378.47151699 176.83274522 1377.69722824 176.8332555 1376.89947619 C176.84156477 1364.47361942 176.86122413 1352.04780552 176.88557369 1339.62197087 C176.90990208 1327.12603258 176.92359859 1314.63011994 176.92647774 1302.13415795 C176.92835613 1295.37317575 176.93545276 1288.61229828 176.95569992 1281.85134315 C176.97417855 1275.65155863 176.97854574 1269.4519237 176.97212213 1263.25211645 C176.97224141 1261.02022969 176.97737552 1258.78833576 176.98829199 1256.55647569 C177.06856977 1239.2702765 175.95645949 1222.21161222 170.9375 1205.5625 C170.68331299 1204.70043945 170.42912598 1203.83837891 170.16723633 1202.95019531 C167.42428843 1194.00133807 163.7587355 1185.57183904 159.625 1177.1875 C159.27034668 1176.46046875 158.91569336 1175.7334375 158.55029297 1174.984375 C138.11600693 1133.50911698 101.17126547 1100.83197547 57.5859375 1085.328125 C12.41752973 1070.16648006 -36.49929552 1073.9057195 -79.33984375 1094.53515625 C-121.15231911 1115.42048769 -153.17853542 1150.91252069 -168.29003906 1195.2956543 C-174.06936055 1213.11313266 -177.54572534 1231.40658715 -177.50528526 1250.16192913 C-177.50722869 1251.11881961 -177.50917212 1252.07571009 -177.51117444 1253.06159726 C-177.51647378 1256.25671037 -177.51473575 1259.4517799 -177.51303101 1262.64689636 C-177.51545059 1264.96552288 -177.51831334 1267.28414897 -177.52158034 1269.60277444 C-177.52931938 1275.96626663 -177.53095201 1282.32974802 -177.53163147 1288.69324434 C-177.53279235 1294.85442086 -177.53962147 1301.01559241 -177.54595293 1307.17676536 C-177.55801696 1319.00943256 -177.56668532 1330.8420992 -177.57299107 1342.67477078 C-177.58304149 1361.47210941 -177.60230481 1380.26943001 -177.62453346 1399.06675778 C-177.63306305 1406.30679754 -177.64132987 1413.54683761 -177.64963722 1420.78687763 C-177.65056223 1421.59124321 -177.65148724 1422.39560879 -177.65244028 1423.22434908 C-177.67442319 1442.36465211 -177.69421643 1461.50495715 -177.71289062 1480.64526367 C-177.7137103 1481.48251863 -177.71452998 1482.31977359 -177.7153745 1483.18239991 C-177.73444563 1502.70230696 -177.75140984 1522.22221391 -177.76373291 1541.74212646 C-177.76452741 1543.00022968 -177.76452741 1543.00022968 -177.76533796 1544.28374913 C-177.76958944 1551.04405778 -177.77376579 1557.80436648 -177.77792276 1564.56467519 C-177.79514841 1592.48231073 -177.82239711 1620.39992159 -177.86108314 1648.31753594 C-177.86654425 1652.26637607 -177.87187734 1656.21521636 -177.87712479 1660.16405678 C-177.87815917 1660.94113792 -177.87919355 1661.71821905 -177.88025927 1662.51884811 C-177.89653489 1674.98654037 -177.90211001 1687.45421524 -177.90342245 1699.92191712 C-177.90493249 1712.47192145 -177.91716906 1725.02187889 -177.94017886 1737.57186254 C-177.95232113 1744.36147617 -177.95938894 1751.15099944 -177.95346642 1757.94062424 C-177.9481296 1764.17063664 -177.95678586 1770.40047545 -177.97602279 1776.63045899 C-177.98055748 1778.87011928 -177.98018481 1781.10979681 -177.97407441 1783.34945335 C-177.86003251 1829.29277231 -190.28525028 1875.65459192 -222.30078125 1909.9609375 C-224.18824168 1911.98702496 -225.97120711 1914.06646905 -227.75 1916.1875 C-250.31623575 1941.82397191 -283.33719095 1958.83150886 -316.375 1966.1875 C-317.09478027 1966.35121094 -317.81456055 1966.51492188 -318.55615234 1966.68359375 C-350.19023355 1973.46282568 -387.07351453 1971.26546243 -417.375 1960.1875 C-418.55320312 1959.76984375 -419.73140625 1959.3521875 -420.9453125 1958.921875 C-437.55578742 1952.67949349 -453.47065211 1944.23923597 -467.375 1933.1875 C-468.17744141 1932.55424805 -468.17744141 1932.55424805 -468.99609375 1931.90820312 C-507.19780535 1901.44760574 -529.28687095 1860.45554987 -535.375 1812.1875 C-536.13020352 1805.14282659 -536.52109067 1798.1875839 -536.50807858 1791.10449791 C-536.5103216 1790.14803275 -536.51256463 1789.19156759 -536.51487562 1788.20611864 C-536.5211651 1785.01853451 -536.52045416 1781.83099178 -536.51976013 1778.6434021 C-536.52289669 1776.32788585 -536.52647214 1774.01237015 -536.53044754 1771.69685519 C-536.54011867 1765.34684314 -536.54369163 1758.99684008 -536.54629052 1752.64682174 C-536.54930246 1746.49750998 -536.55795655 1740.34820482 -536.5660775 1734.19889811 C-536.58256781 1721.62059121 -536.59476665 1709.04228374 -536.60479546 1696.46397018 C-536.61923434 1678.48484443 -536.64199628 1660.50573437 -536.66646057 1642.52661982 C-536.67624968 1635.30573927 -536.68577108 1628.08485835 -536.69529057 1620.86397743 C-536.69634933 1620.06178364 -536.6974081 1619.25958984 -536.69849895 1618.43308715 C-536.72363688 1599.3484602 -536.74613837 1580.26383037 -536.76782227 1561.17919922 C-536.7687727 1560.34443228 -536.76972314 1559.50966534 -536.77070238 1558.64960243 C-536.79284931 1539.17822767 -536.81372618 1519.70685205 -536.83239746 1500.23547363 C-536.83320121 1499.39824455 -536.83400496 1498.56101547 -536.83483307 1497.69841581 C-536.83888387 1493.47669699 -536.84292545 1489.25497817 -536.84696633 1485.03325935 C-536.84776532 1484.19888696 -536.84856431 1483.36451458 -536.84938752 1482.50485818 C-536.85099983 1480.82076249 -536.85261065 1479.1366668 -536.85421998 1477.45257111 C-536.88087403 1449.60382175 -536.91425211 1421.75508672 -536.95499813 1393.90635431 C-536.96074761 1389.97036207 -536.96640628 1386.0343697 -536.97200203 1382.09837723 C-536.97310383 1381.32380435 -536.97420564 1380.54923148 -536.97534083 1379.7511867 C-536.99281652 1367.30747435 -537.00300383 1354.86376624 -537.01025448 1342.42004416 C-537.01766136 1329.90500114 -537.03209351 1317.38998232 -537.05368023 1304.87495558 C-537.06515818 1298.10027252 -537.07320702 1291.32562789 -537.07267189 1284.55093384 C-537.07224241 1278.34166326 -537.08101823 1272.13247435 -537.09692169 1265.92322476 C-537.10105674 1263.68437326 -537.10188563 1261.44551252 -537.09895759 1259.20665912 C-537.08056347 1243.16526367 -537.6747657 1227.46616842 -541.5625 1211.8125 C-541.77825684 1210.93658203 -541.99401367 1210.06066406 -542.21630859 1209.15820312 C-553.89559376 1163.49310221 -584.01705601 1123.8549289 -624.265625 1099.5703125 C-665.01467564 1075.59686818 -712.00322584 1068.76755937 -757.9375 1080.4375 C-804.05902836 1092.98327777 -844.03170979 1121.48108347 -868.15917969 1163.01904297 C-878.6516714 1181.73276012 -885.6079113 1202.0884762 -889.375 1223.1875 C-889.54286215 1224.08030511 -889.71072431 1224.97311022 -889.88367319 1225.89297003 C-891.78108384 1237.25857492 -891.65873198 1248.53525042 -891.64001465 1260.02748108 C-891.64358956 1262.33861178 -891.64804194 1264.64974127 -891.65329123 1266.96086878 C-891.66516985 1273.28499233 -891.66477855 1279.60906392 -891.66235614 1285.93319595 C-891.660995 1292.06189318 -891.67098983 1298.19057753 -891.67982496 1304.31926682 C-891.69761133 1316.85309812 -891.70648963 1329.38692042 -891.71052551 1341.92076302 C-891.71616177 1359.04967612 -891.73485007 1376.17855769 -891.75696605 1393.30745655 C-891.76726656 1401.29876082 -891.77693164 1409.29006586 -891.78643036 1417.28137112 C-891.78738187 1418.08127458 -891.78833338 1418.88117804 -891.78931372 1419.705321 C-891.81179461 1438.72859232 -891.8280494 1457.75186815 -891.84326172 1476.77514648 C-891.84392927 1477.60704689 -891.84459682 1478.43894729 -891.8452846 1479.29605679 C-891.85542863 1491.94737101 -891.86524834 1504.59868548 -891.875 1517.25 C-891.88539141 1530.72908544 -891.89590823 1544.20817077 -891.90673828 1557.68725586 C-891.90740316 1558.51763553 -891.90806804 1559.3480152 -891.90875306 1560.20355789 C-891.92398188 1579.18106792 -891.94100055 1598.15857408 -891.96356964 1617.13607693 C-891.9645189 1617.93488528 -891.96546816 1618.73369363 -891.96644618 1619.5567083 C-891.97596675 1627.53431455 -891.98579733 1635.51192036 -891.99609014 1643.48952565 C-892.01808799 1660.59253694 -892.03470019 1677.69552893 -892.04021569 1694.79855397 C-892.04432121 1707.27185019 -892.05526332 1719.74512454 -892.07319343 1732.21840871 C-892.08267856 1738.96728154 -892.08872416 1745.71611202 -892.08613014 1752.46499443 C-892.08380194 1758.65523099 -892.09073307 1764.84538871 -892.10470897 1771.0356093 C-892.10814236 1773.26300332 -892.108292 1775.49040564 -892.10463637 1777.71779931 C-892.07837064 1795.46867409 -892.54677653 1813.37950689 -896.5625 1830.75 C-896.88395996 1832.1716748 -896.88395996 1832.1716748 -897.21191406 1833.62207031 C-907.66883157 1877.97892407 -934.4378886 1918.95995076 -973.34570312 1943.42675781 C-977.92219798 1946.21098005 -982.61123235 1948.7405877 -987.375 1951.1875 C-988.0354834 1951.53264648 -988.6959668 1951.87779297 -989.37646484 1952.23339844 C-1007.97095457 1961.85357408 -1027.71179083 1967.21692633 -1048.375 1970.1875 C-1049.0673877 1970.290625 -1049.75977539 1970.39375 -1050.47314453 1970.5 C-1057.82319308 1971.4637151 -1065.2232161 1971.4311395 -1072.625 1971.4375 C-1073.68646744 1971.43851212 -1073.68646744 1971.43851212 -1074.76937866 1971.43954468 C-1121.5320866 1971.36901269 -1164.61294248 1953.58598492 -1198.375 1921.1875 C-1199.80392578 1919.85332031 -1199.80392578 1919.85332031 -1201.26171875 1918.4921875 C-1229.04177687 1892.08166342 -1248.94013135 1850.28656481 -1250.4689087 1811.82490315 C-1250.50514282 1809.14968373 -1250.51143774 1806.47603265 -1250.50642776 1803.80056953 C-1250.5084804 1802.77472228 -1250.51053303 1801.74887503 -1250.51264787 1800.6919415 C-1250.51830807 1797.249948 -1250.51686178 1793.80799464 -1250.51544189 1790.36599731 C-1250.51802619 1787.87447402 -1250.52103953 1785.38295114 -1250.5244453 1782.89142883 C-1250.53166684 1776.75818169 -1250.53421766 1770.62494709 -1250.53477435 1764.4916962 C-1250.53568954 1757.14208419 -1250.5423623 1749.7924802 -1250.54912117 1742.44287165 C-1250.56517861 1724.66594523 -1250.57108698 1706.88901967 -1250.57586992 1689.11208729 C-1250.57820907 1680.68448931 -1250.58181238 1672.256892 -1250.5855653 1663.82929454 C-1250.59840901 1634.92870879 -1250.60912083 1606.02812341 -1250.6125679 1577.12753487 C-1250.61278953 1575.31303851 -1250.61301131 1573.49854214 -1250.61323325 1571.68404578 C-1250.61345389 1569.8653231 -1250.61367437 1568.04660042 -1250.6138947 1566.22787774 C-1250.61433723 1562.57965287 -1250.61478435 1558.93142799 -1250.61523438 1555.28320312 C-1250.61534377 1554.37865528 -1250.61545316 1553.47410744 -1250.61556586 1552.54214906 C-1250.61918443 1523.31048538 -1250.6350546 1494.07884668 -1250.65842474 1464.84719255 C-1250.68313656 1433.88002622 -1250.69674626 1402.91287413 -1250.69793582 1371.94569767 C-1250.69810724 1368.53148516 -1250.69832266 1365.11727265 -1250.69857025 1361.70306015 C-1250.69862602 1360.86249836 -1250.69868179 1360.02193657 -1250.69873925 1359.15590321 C-1250.69988081 1345.7394156 -1250.71082703 1332.32295396 -1250.72545731 1318.90647506 C-1250.73997461 1305.35654803 -1250.74297519 1291.80665354 -1250.73501733 1278.25672086 C-1250.73100877 1270.94327875 -1250.73148247 1263.62991524 -1250.74607468 1256.31648445 C-1250.93665847 1156.18140865 -1239.47435309 1057.45075884 -1097.95556641 655.03222656 C-1096.23289584 651.93173885 -1094.52795421 648.82186785 -1092.82421875 645.7109375 C-1086.62644956 634.42669527 -1080.3078095 623.22994586 -1073.6875 612.1875 C-1073.1308667 611.25897217 -1072.5742334 610.33044434 -1072.00073242 609.3737793 C-1062.4480211 593.57606698 -1052.42230176 578.09165211 -1042.16601562 562.74365234 C-1040.37283545 560.05925967 -1038.58464175 557.37159387 -1036.796875 554.68359375 C-1027.33737795 540.48834605 -1017.6406528 526.46895699 -1007.5 512.75 C-1006.63701294 511.58078003 -1006.63701294 511.58078003 -1005.7565918 510.38793945 C-999.96458541 502.57647079 -994.00443661 494.89962661 -987.99609375 487.25390625 C-986.47054041 485.30928524 -984.95263232 483.35899546 -983.4375 481.40625 C-978.52007739 475.08274109 -973.48836054 468.88494979 -968.28393555 462.79516602 C-965.62514954 459.68113121 -963.03248066 456.52986536 -960.5 453.3125 C-952.62017816 443.38198682 -944.12724363 433.93784216 -935.56640625 424.59375 C-933.66128191 422.50184877 -931.79060939 420.38786615 -929.9375 418.25 C-925.70781533 413.39078087 -921.3440097 408.65584744 -916.97467041 403.92260742 C-915.95477881 402.81636611 -914.93620459 401.70890777 -913.91937256 400.59985352 C-903.97562861 389.75836114 -893.65468172 379.3125063 -883.24121094 368.92333984 C-880.47994716 366.16748645 -877.7241364 363.40625972 -874.96875 360.64453125 C-873.19042508 358.86686641 -871.41179037 357.08951141 -869.6328125 355.3125 C-868.82119659 354.49885986 -868.00958069 353.68521973 -867.17337036 352.84692383 C-862.93793198 348.62871096 -858.624507 344.57099118 -854.09420776 340.67089844 C-852.06204497 338.91747039 -850.10099976 337.09963713 -848.15625 335.25 C-847.45113281 334.58226562 -846.74601562 333.91453125 -846.01953125 333.2265625 C-845.31183594 332.55367187 -844.60414063 331.88078125 -843.875 331.1875 C-838.48018611 326.05800483 -833.01653271 321.04492076 -827.375 316.1875 C-826.52663574 315.45587646 -826.52663574 315.45587646 -825.66113281 314.70947266 C-824.02652762 313.30343927 -822.3888912 311.90103442 -820.75 310.5 C-819.53379156 309.45970861 -818.31764764 308.41934177 -817.1015625 307.37890625 C-816.48700195 306.85312988 -815.87244141 306.32735352 -815.23925781 305.78564453 C-813.3933072 304.20319394 -811.5515159 302.61603796 -809.7109375 301.02734375 C-803.92762886 296.0402196 -798.12005286 291.11264477 -792.12890625 286.375 C-788.54319412 283.52677477 -784.99024154 280.63918323 -781.4375 277.75 C-780.74301758 277.18563232 -780.04853516 276.62126465 -779.33300781 276.03979492 C-775.46237272 272.8922806 -771.60253433 269.73216266 -767.75 266.5625 C-762.01405076 261.86635136 -756.18917309 257.28846407 -750.34521484 252.72802734 C-748.2641181 251.10080052 -746.18860575 249.46661192 -744.11328125 247.83203125 C-733.72537774 239.67214528 -723.15058467 231.82695814 -712.375 224.1875 C-711.23587158 223.37659912 -711.23587158 223.37659912 -710.07373047 222.54931641 C-636.49407948 170.23938622 -556.83616665 125.56986643 -449.375 82.1875 C-448.25270996 81.75163574 -447.13041992 81.31577148 -445.97412109 80.86669922 C-438.15115581 77.85077693 -430.27895315 74.98356382 -422.375 72.1875 C-421.58409973 71.90733032 -420.79319946 71.62716064 -419.97833252 71.33850098 C-328.95945197 39.15768305 -235.04037121 17.41604724 -65.04949951 1.33566284 C-63.30686946 1.23912402 -61.56438481 1.13991194 -59.82208252 1.03762817 C-39.8975394 -0.11255462 -19.95019688 -0.01320865 0 0 Z " fill="#5640D8" transform="translate(1250.375,263.8125)"/>
</svg>
