<svg width="128" height="128" viewBox="0 0 128 128" xmlns="http://www.w3.org/2000/svg" role="img" aria-labelledby="title">
  <title>CoinEx</title>
  <defs>
    <linearGradient id="coinexGradient" x1="0%" y1="0%" x2="100%" y2="100%">
      <stop offset="0%" stop-color="#30E0A1" />
      <stop offset="100%" stop-color="#00B5AD" />
    </linearGradient>
  </defs>
  <rect width="128" height="128" rx="32" fill="#0D1C1B" />
  <path d="M64 22c23 0 42 19 42 42s-19 42-42 42s-42-19-42-42s19-42 42-42zm0 16c-14 0-26 12-26 26s12 26 26 26s26-12 26-26c0-2.7-.4-5.3-1.1-7.7l-13.4 13.4c-3.1 3.1-8.1 3.1-11.2 0l-7.6-7.6c-3.1-3.1-3.1-8.1 0-11.2l13.3-13.4c-1.7-.3-3.5-.5-5.4-.5z" fill="url(#coinexGradient)" />
</svg>
